# xmcd
#
# Track frame offsets: 
#        150
#        16475
#        31602
#        52662
#        73255
#        102942
#        124575
#        144495
#        158647
#        181557
#        196157
#        210872
#        226227
#
# Disc length: 3411 seconds
#
# Revision: 0
# Processed by: cddbd v1.5.2PL0 Copyright (c) Steve Scherf et al.
# Submitted via: ExactAudioCopy v0.90b4
#
DISCID=960d510d
DTITLE=Delgado Brothers - Let's Get Back .....
DYEAR=1999
DGENRE=Blues
TTITLE0=Come With Me Baby (Can't Go Wrong)
TTITLE1=Let's Get Back
TTITLE2=Real Deal
TTITLE3=If I Don't Get Home
TTITLE4=No Regrets
TTITLE5=Finally Home
TTITLE6=Mixed Signals
TTITLE7=L.A. Ellie
TTITLE8=Somethin' About My Baby
TTITLE9=Blue Line
TTITLE10=One For The Children
TTITLE11=Struttin' Joey "D"
TTITLE12=Church of El Monte
EXTD=
EXTT0=
EXTT1=
EXTT2=
EXTT3=
EXTT4=
EXTT5=
EXTT6=
EXTT7=
EXTT8=
EXTT9=
EXTT10=
EXTT11=
EXTT12=
PLAYORDER=
